<svg version="1.1" id="Layer_1" xmlns="http://www.w3.org/2000/svg" xmlns:xlink="http://www.w3.org/1999/xlink" x="0px" y="0px" width="200px" height="44px" preserveAspectRatio="xMinYMin" viewBox="0 0 992.126 216.176" enable-background="new 0 0 992.126 216.176" xml:space="preserve">
    <g>
        <polygon fill="#00AEEF" class="logo-underline" points="0,185.295 0,216.176 130.314,216.176 130.314,185.295 0,185.295 	"></polygon>
        <g>
            <path fill="#FFFFFF" d="M94.594,60.352H35.675V0.232C19.663,1.423,7.578,4.643,0,7.26v150.506h2.299
			        c14.288-0.955,25.55-3.521,33.375-5.934V91.569h58.919v66.08c16.103-1.246,28.216-4.541,35.68-7.158V0
			        c-15.311,0.765-27.361,3.411-35.68,5.938V60.352L94.594,60.352z"></path>
            <path fill="#FFFFFF" d="M255.879,89.931c0-27.229-11.969-49.767-50.233-49.767c-20.887,0-36.618,5.87-44.598,10.33l6.573,23.007
			        c7.511-4.695,19.949-8.684,31.688-8.684c17.606,0,20.89,8.684,20.89,15.022v1.404c-40.607,0-67.369,14.08-67.369,43.897
			        c0,18.305,13.853,35.201,37.089,35.201c13.613,0,25.35-4.93,32.861-14.082h0.706l2.113,11.502h0.22
			        c12.921-0.859,23.412-3.039,31.082-5.237c-0.749-6.187-1.023-14.247-1.023-22.455V89.931L255.879,89.931z M221.375,115.981
			        c0,2.112-0.234,4.229-0.706,6.102c-2.347,7.281-9.858,13.145-18.54,13.145c-7.982,0-14.087-4.458-14.087-13.613
			        c0-13.611,14.554-18.071,33.333-18.071V115.981L221.375,115.981z"></path>
            <path fill="#FFFFFF" d="M316.229,64.111h-0.94l-1.395-20.913c-12.547,0.914-22.714,3.079-30.194,5.234
			        c0.445,8.561,0.604,18.474,0.604,32.34v76.99h35.68v-58.21c0-2.819,0.234-5.633,0.704-7.983
			        c2.347-11.031,11.268-18.068,24.412-18.068c3.989,0,6.808,0.469,9.625,0.938V40.87c-2.584-0.469-4.226-0.706-7.511-0.706
			        C335.947,40.164,322.094,47.208,316.229,64.111L316.229,64.111z"></path>
            <path fill="#FFFFFF" d="M432.668,67.866c9.39,0,15.729,1.644,19.952,3.52l5.635-26.522c-7.511-2.819-17.839-4.465-27.229-4.465
			        c-42.722,0-65.725,27.467-65.725,61.029c0,35.915,23.704,58.688,60.795,58.688c13.611,0,25.582-2.353,31.923-5.4l-4.226-26.291
			        c-5.398,2.343-11.974,3.755-20.42,3.755c-17.372,0-31.457-11.268-31.457-32.155C401.683,81.244,413.891,67.866,432.668,67.866
			        L432.668,67.866z"></path>
            <path fill="#FFFFFF" d="M530.328,40.164c-37.087,0-61.5,23.711-61.5,61.03c0,37.09,25.821,59.149,59.388,59.149
			        c30.748,0,60.561-19.246,60.561-61.26C588.777,64.346,565.307,40.164,530.328,40.164L530.328,40.164z M529.156,134.763
			        c-15.258,0-23.476-14.788-23.476-34.51c0-16.894,6.573-34.502,23.476-34.502c16.193,0,22.77,17.372,22.77,34.273
			        C551.926,120.911,543.24,134.763,529.156,134.763L529.156,134.763z"></path>
            <path fill="#FFFFFF" d="M719.076,42.985h-35.68v68.302c0,3.055-0.469,5.635-1.404,7.748c-2.115,5.635-7.986,12.438-17.844,12.438
			        c-12.672,0-18.07-10.093-18.07-26.754V42.985h-35.686v67.362c0,35.445,16.908,49.996,40.373,49.996
			        c20.656,0,31.455-11.732,35.916-18.774h0.709l1.641,16.197h3.396c10.965-0.732,20.18-2.407,27.398-4.247
			        c-0.396-8.916-0.75-19.655-0.75-32.61V42.985L719.076,42.985z"></path>
            <path fill="#FFFFFF" d="M779.66,64.111h-0.939l-1.4-20.978c-12.459,0.834-22.623,2.904-30.205,5.024
			        c0.457,8.622,0.619,18.599,0.619,32.615v76.99h35.68v-58.21c0-2.819,0.232-5.633,0.705-7.983
			        c2.35-11.031,11.268-18.068,24.412-18.068c3.988,0,6.805,0.469,9.623,0.938V40.87c-2.58-0.469-4.227-0.706-7.508-0.706
			        C799.377,40.164,785.531,47.208,779.66,64.111L779.66,64.111z"></path>
            <path fill="#FFFFFF" d="M865.83,9.986c-14.734,0.64-26.543,3.049-34.975,5.465v27.534v26.291v46.94
			        c0,16.197,3.291,27.23,9.859,34.041c5.869,5.862,15.498,9.858,26.996,9.858c9.857,0,18.549-1.412,23.006-3.056l-0.234-26.991
			        c-3.285,0.701-5.635,0.936-10.564,0.936c-10.564,0-14.088-6.334-14.088-20.188v-41.54h25.588V42.985H865.83V9.986L865.83,9.986z"></path>
            <path fill="#FFFFFF" d="M961.148,87.583c-14.088-4.929-18.547-7.743-18.547-13.378c0-5.633,4.93-9.153,13.617-9.153
			        c9.617,0,19.717,3.752,24.877,6.568l6.104-24.646c-7.045-3.52-18.779-6.81-32.16-6.81c-28.402,0-46.707,16.2-46.707,37.795
			        c-0.236,13.61,8.918,26.522,32.859,34.503c13.146,4.457,16.668,7.278,16.668,13.378c0,5.867-4.459,9.388-15.258,9.388
			        c-10.564,0-24.178-4.458-30.75-8.449l-6.334,25.352c8.678,4.695,22.063,8.215,37.084,8.215c32.865,0,49.525-15.724,49.525-37.321
			        C991.895,106.357,982.977,95.094,961.148,87.583L961.148,87.583z"></path>
        </g>
    </g>
</svg>